<svg width="1728" height="927" viewBox="0 0 1728 927" fill="none" xmlns="http://www.w3.org/2000/svg">
<g filter="url(#filter0_f_2257_127)">
<g filter="url(#filter1_f_2257_127)">
<path d="M-38 70.001C659.125 546.435 1054.22 544.387 1766 70.001V857.001C1059 419.449 664.128 419.397 -38 857.001V70.001Z" fill="#1E74E5"/>
</g>
<g filter="url(#filter2_f_2257_127)">
<path d="M-2.30322 230.811C680.166 530.431 1078.57 537.2 1730.3 230.811V716.684C1051.17 435.692 671.925 436.037 -2.30322 716.684L-2.30322 230.811Z" fill="#2A8DFF"/>
</g>
<g filter="url(#filter3_f_2257_127)">
<path d="M777.805 481.343C1156.98 493.647 1364.71 516.167 1714.63 622.421L1714.63 340.264C1354.2 437.204 1147.93 459.243 777.805 481.343Z" fill="#73CAFF"/>
</g>
<g filter="url(#filter4_f_2257_127)">
<path d="M934.523 481.343C555.344 493.647 347.62 516.167 -2.30322 622.421L-2.3032 340.264C358.132 437.204 564.399 459.243 934.523 481.343Z" fill="#73CAFF"/>
</g>
</g>
<defs>
<filter id="filter0_f_2257_127" x="-81.0104" y="26.9906" width="1890.02" height="873.021" filterUnits="userSpaceOnUse" color-interpolation-filters="sRGB">
<feFlood flood-opacity="0" result="BackgroundImageFix"/>
<feBlend mode="normal" in="SourceGraphic" in2="BackgroundImageFix" result="shape"/>
<feGaussianBlur stdDeviation="21.5052" result="effect1_foregroundBlur_2257_127"/>
</filter>
<filter id="filter1_f_2257_127" x="-108.001" y="0.000213623" width="1944" height="927.002" filterUnits="userSpaceOnUse" color-interpolation-filters="sRGB">
<feFlood flood-opacity="0" result="BackgroundImageFix"/>
<feBlend mode="normal" in="SourceGraphic" in2="BackgroundImageFix" result="shape"/>
<feGaussianBlur stdDeviation="35.0004" result="effect1_foregroundBlur_2257_127"/>
</filter>
<filter id="filter2_f_2257_127" x="-30.9478" y="202.166" width="1789.9" height="543.162" filterUnits="userSpaceOnUse" color-interpolation-filters="sRGB">
<feFlood flood-opacity="0" result="BackgroundImageFix"/>
<feBlend mode="normal" in="SourceGraphic" in2="BackgroundImageFix" result="shape"/>
<feGaussianBlur stdDeviation="14.3223" result="effect1_foregroundBlur_2257_127"/>
</filter>
<filter id="filter3_f_2257_127" x="691.958" y="254.417" width="1108.52" height="453.851" filterUnits="userSpaceOnUse" color-interpolation-filters="sRGB">
<feFlood flood-opacity="0" result="BackgroundImageFix"/>
<feBlend mode="normal" in="SourceGraphic" in2="BackgroundImageFix" result="shape"/>
<feGaussianBlur stdDeviation="42.9234" result="effect1_foregroundBlur_2257_127"/>
</filter>
<filter id="filter4_f_2257_127" x="-88.1499" y="254.417" width="1108.52" height="453.851" filterUnits="userSpaceOnUse" color-interpolation-filters="sRGB">
<feFlood flood-opacity="0" result="BackgroundImageFix"/>
<feBlend mode="normal" in="SourceGraphic" in2="BackgroundImageFix" result="shape"/>
<feGaussianBlur stdDeviation="42.9234" result="effect1_foregroundBlur_2257_127"/>
</filter>
</defs>
</svg>
