<svg width="1226" height="1206" viewBox="0 0 1226 1206" fill="none" xmlns="http://www.w3.org/2000/svg">
<g clip-path="url(#clip0_39_463)">
<rect width="1226" height="1206" fill="#90C3FF"/>
<ellipse cx="602.742" cy="862.5" rx="781.728" ry="862.5" fill="url(#paint0_radial_39_463)"/>
<ellipse cx="602.742" cy="862.5" rx="781.728" ry="862.5" fill="url(#paint1_radial_39_463)"/>
<ellipse cx="511" cy="176" rx="81" ry="134" fill="white"/>
<ellipse cx="695" cy="176" rx="81" ry="134" fill="white"/>
<circle cx="519" cy="270" r="27.9999" fill="#000002"/>
<path d="M709 266C709 281.464 696.464 294 681 294C665.536 294 653 281.464 653 266C653 250.536 665.536 238 681 238C696.464 238 709 250.536 709 266Z" fill="#000002"/>
<path d="M195.339 844.545C201.137 852.715 204.036 862.202 204.036 873.534C204.036 885.13 201.137 894.354 195.339 901.469C192.177 905.423 187.169 909.112 180.845 912.275C190.595 915.7 197.711 921.235 202.982 928.877C207.725 936.52 210.097 945.744 210.097 956.812C210.097 967.881 207.462 978.159 201.664 986.856C197.975 992.917 193.494 997.924 188.224 1001.88C182.162 1006.62 175.047 1009.78 166.614 1011.36C158.444 1013.21 149.22 1014 139.733 1014H53.8195V824.253H145.794C169.249 824.78 185.588 831.368 195.339 844.545ZM138.151 899.098C146.585 899.098 153.173 897.516 158.444 894.354C163.715 891.192 166.086 885.657 166.086 877.751C166.086 868.791 162.66 862.993 155.808 860.358C150.011 858.249 142.368 857.195 133.144 857.195H91.5053V899.098H138.151ZM138.151 981.058C146.585 981.058 152.91 980.004 157.653 977.632C165.823 973.679 170.303 965.773 170.303 953.913C170.303 944.163 166.086 937.311 157.917 933.621C153.437 931.776 147.112 930.722 138.679 930.459H91.5053V981.058H138.151ZM240.847 823.199H278.005V856.932H240.847V823.199ZM278.005 1014H240.847V873.798H278.005V1014ZM419.346 873.798V904.105L348.191 983.957H421.981V1014H300.754V985.538L372.7 903.578H305.761V873.798H419.346ZM575.887 883.549C572.988 870.636 565.609 861.412 554.014 856.405C547.425 853.506 540.046 852.188 532.14 852.188C516.855 852.188 504.469 857.986 494.454 869.318C484.703 880.914 479.696 898.307 479.696 921.498C479.696 944.69 484.967 961.292 495.772 971.043C506.313 980.794 518.436 985.538 532.14 985.538C545.317 985.538 556.122 981.585 564.819 973.942C573.252 966.3 578.523 956.285 580.367 943.899H536.62V912.275H615.418V1014H589.328L585.375 990.282C577.732 999.242 570.88 1005.57 564.819 1009.26C554.277 1015.84 541.364 1019.01 526.079 1019.01C501.043 1019.01 480.487 1010.31 464.411 992.917C447.545 975.524 439.375 951.542 439.375 920.971C439.375 890.401 447.808 865.892 464.674 847.181C481.541 828.733 503.942 819.509 531.613 819.509C555.595 819.509 575.097 825.571 589.855 837.693C604.349 849.816 612.783 865.365 614.891 883.549H575.887ZM687.185 958.394C687.185 966.3 687.975 972.361 689.82 976.314C693.246 983.43 699.834 986.856 709.585 986.856C721.972 986.856 730.668 981.848 735.412 971.834C737.784 966.3 738.838 959.184 738.838 949.96V873.798H776.26V1014H740.419V994.235L737.784 997.924C736.466 1000.3 734.885 1002.14 733.04 1003.72C727.242 1008.73 721.708 1012.42 716.437 1014.26C710.903 1016.11 704.842 1017.16 697.463 1017.16C676.907 1017.16 662.676 1009.52 655.56 994.762C651.607 986.592 649.499 974.469 649.499 958.394V873.798H687.185V958.394ZM812.188 823.199H849.347V856.932H812.188V823.199ZM849.347 1014H812.188V873.798H849.347V1014ZM959.326 875.906C965.915 879.596 971.449 884.867 975.402 891.455V824.517H1012.56V1014H976.983V994.498C971.712 1002.93 965.915 1008.99 959.063 1012.68C952.474 1016.37 944.041 1018.48 934.027 1018.48C917.687 1018.48 903.983 1011.63 892.915 998.451C881.583 985.274 876.048 968.144 876.048 947.589C876.048 923.607 881.583 904.632 892.651 890.928C903.456 877.224 918.214 870.372 936.662 870.372C945.095 870.372 952.738 872.217 959.326 875.906ZM968.286 975.787C973.821 968.144 976.456 958.13 976.456 946.007C976.456 928.877 972.24 916.491 963.543 909.112C958.272 904.632 951.947 902.524 944.832 902.524C934.29 902.524 926.384 906.477 921.377 914.646C916.37 922.552 913.734 932.83 913.734 944.69C913.734 957.867 916.37 968.144 921.64 975.787C926.648 983.693 934.29 987.383 944.832 987.383C955.11 987.383 963.016 983.693 968.286 975.787ZM1133.08 876.697C1142.31 880.914 1149.95 887.766 1156.01 897.253C1161.55 905.686 1165.24 915.173 1166.82 926.242C1167.61 932.567 1168.13 942.054 1167.87 953.913H1071.94C1072.47 968.144 1076.95 977.895 1085.12 983.693C1090.13 987.119 1096.45 988.964 1103.57 988.964C1111.21 988.964 1117.01 986.592 1122.02 982.375C1124.39 980.267 1126.76 976.841 1128.6 972.888H1166.29C1165.24 981.058 1160.76 989.491 1153.11 998.188C1141.25 1011.89 1124.39 1018.74 1102.78 1018.74C1084.86 1018.74 1069.04 1012.95 1055.6 1001.35C1041.9 990.018 1035.05 971.043 1035.05 945.217C1035.05 920.971 1041.11 902.524 1053.5 889.347C1065.88 876.433 1081.69 870.109 1101.46 870.109C1113.06 870.109 1123.6 872.217 1133.08 876.697ZM1081.69 908.321C1076.95 913.592 1074.05 920.708 1073 929.932H1129.92C1129.13 920.181 1126.5 912.802 1121.22 907.794C1115.95 902.787 1109.37 900.152 1101.46 900.152C1093.03 900.152 1086.44 903.051 1081.69 908.321Z" fill="white"/>
</g>
<defs>
<radialGradient id="paint0_radial_39_463" cx="0" cy="0" r="1" gradientUnits="userSpaceOnUse" gradientTransform="translate(602.742 391.792) rotate(90) scale(1333.21 1208.35)">
<stop stop-color="#0C7AFF"/>
<stop offset="1" stop-color="#B0D4FF"/>
</radialGradient>
<radialGradient id="paint1_radial_39_463" cx="0" cy="0" r="1" gradientUnits="userSpaceOnUse" gradientTransform="translate(602.742 391.792) rotate(90) scale(1333.21 1208.35)">
<stop stop-color="#0C7AFF"/>
<stop offset="1" stop-color="#B0D4FF"/>
</radialGradient>
<clipPath id="clip0_39_463">
<rect width="1226" height="1206" fill="white"/>
</clipPath>
</defs>
</svg>
