<svg width="33" height="31" viewBox="0 0 33 31" fill="none" xmlns="http://www.w3.org/2000/svg">
<path d="M17.8065 31C17.302 31 16.8794 30.8347 16.5387 30.504C16.198 30.1733 16.0271 29.7646 16.0259 29.2778C16.0247 28.791 16.1956 28.3822 16.5387 28.0516C16.8818 27.7209 17.3044 27.5556 17.8065 27.5556H28.4904V3.44444H17.8065C17.302 3.44444 16.8794 3.27911 16.5387 2.94844C16.198 2.61778 16.0271 2.20904 16.0259 1.72222C16.0247 1.23541 16.1956 0.826667 16.5387 0.496C16.8818 0.165334 17.3044 0 17.8065 0H28.4904C29.4698 0 30.3085 0.337556 31.0065 1.01267C31.7045 1.68778 32.0529 2.49837 32.0517 3.44444V27.5556C32.0517 28.5028 31.7033 29.3139 31.0065 29.9891C30.3097 30.6642 29.471 31.0011 28.4904 31H17.8065ZM14.5568 17.2222H1.78066C1.27614 17.2222 0.853532 17.0569 0.512834 16.7262C0.172136 16.3956 0.00119324 15.9868 6.14017e-06 15.5C-0.00118096 15.0132 0.169762 14.6044 0.512834 14.2738C0.855906 13.9431 1.27851 13.7778 1.78066 13.7778H14.5568L11.2181 10.5486C10.8917 10.2329 10.7284 9.84537 10.7284 9.38611C10.7284 8.92685 10.8917 8.525 11.2181 8.18055C11.5446 7.83611 11.96 7.65642 12.4646 7.6415C12.9691 7.62657 13.3994 7.79191 13.7555 8.1375L20.1214 14.2944C20.4775 14.6389 20.6556 15.0407 20.6556 15.5C20.6556 15.9593 20.4775 16.3611 20.1214 16.7056L13.7555 22.8625C13.3994 23.2069 12.9768 23.3723 12.4877 23.3585C11.9986 23.3447 11.5754 23.165 11.2181 22.8194C10.8917 22.475 10.7361 22.0663 10.7516 21.5932C10.767 21.1202 10.9374 20.7252 11.2626 20.4083L14.5568 17.2222Z" fill="white"/>
</svg>
